<?xml version="1.0" encoding="utf-8"?>
<!-- Generator: Adobe Illustrator 27.7.0, SVG Export Plug-In . SVG Version: 6.00 Build 0)  -->
<svg version="1.1" id="pics_n_palette" xmlns="http://www.w3.org/2000/svg" xmlns:xlink="http://www.w3.org/1999/xlink" x="0px"
	 y="0px" viewBox="0 0 790.4 444" style="enable-background:new 0 0 790.4 444;" xml:space="preserve">
<style type="text/css">
	.st0{enable-background:new    ;}
	.st1{fill:#CBFD00;}
</style>
<g class="st0">
	<path class="st1" d="M59.9,170.9H22.2V33.1h37.7V170.9z M88.1,85v34.7H47.9V85H88.1z M155.2,170.9h-45.9l-26.7-39.6
		c-3.4-5.2-6.1-10.2-8-15c-1.9-4.8-2.9-9.6-2.9-14.2c0-4.8,0.9-9.6,2.7-14.4c1.8-4.8,4.5-9.8,8.2-14.8l29-39.8H154l-35.7,49.6
		c-2.9,3.9-5,7.3-6.4,10c-1.4,2.7-2.1,5.4-2.1,8c0,2.6,0.7,5.2,2.1,8c1.4,2.7,3.6,6.1,6.4,10.2L155.2,170.9z"/>
</g>
<g class="st0">
	<path class="st1" d="M211.3,170.9h-37.7V33.1h37.7V85h54.1V33.1h37.7v137.7h-37.7v-51.2h-54.1V170.9z"/>
</g>
<g class="st0">
	<path class="st1" d="M318.4,170.9L353.9,55c2.6-8.4,7.1-14.7,13.5-18.8c6.4-4.1,13.1-6.1,20.2-6.1c7.2,0,14,2,20.3,6.1
		c6.3,4.1,10.8,10.3,13.4,18.8l35.5,115.9h-38.6L389.4,66c-0.4-1.4-1-2-1.6-2c-0.7,0-1.2,0.7-1.6,2L357,170.9H318.4z M429,147.6H350
		v-33.7H429V147.6z"/>
	<path class="st1" d="M510.8,170.9h-35.7V53.3c0-4.9,1.1-9.1,3.4-12.6c2.2-3.5,5.2-6.2,8.8-8.1c3.6-1.8,7.4-2.8,11.3-2.8
		c4.8,0,9.1,0.9,13.2,2.5c4,1.7,7.2,4.5,9.7,8.5l59.4,94c-1.2-1.5-2.3-2.5-3.3-3.1c-1-0.5-2-0.8-3.1-0.8c-1.2,0-2.3,0.5-3.2,1.6
		c-0.9,1.1-1.3,2.7-1.3,4.7V33.1h35.7v117.5c0,4.9-1.1,9.1-3.4,12.5c-2.2,3.5-5.1,6.1-8.7,8c-3.5,1.8-7.3,2.8-11.4,2.8
		c-4.6,0-9-0.9-13.1-2.7c-4.1-1.8-7.3-4.6-9.8-8.4l-58.5-92.8c1,1.2,1.9,2.1,2.8,2.6c0.9,0.5,1.9,0.7,3,0.7c1.4,0,2.4-0.5,3.2-1.6
		c0.7-1.1,1.1-2.7,1.1-4.9V170.9z"/>
	<path class="st1" d="M675,170.9h-37.7V33.1H675V85h54.1V33.1h37.7v137.7h-37.7v-51.2H675V170.9z"/>
</g>
<g class="st0">
	<path class="st1" d="M314.4,347.3c0,10.5-1.8,19.9-5.5,28.3s-8.8,15.5-15.5,21.5c-6.7,6-14.6,10.6-23.8,13.8
		c-9.2,3.2-19.3,4.8-30.3,4.8h-54.5V278h54.5c15.1,0,28.3,2.9,39.5,8.7c11.2,5.8,20,13.8,26.2,24.2
		C311.3,321.1,314.4,333.3,314.4,347.3z M275.7,347.3c0-6.9-1.5-13-4.5-18.2c-3-5.2-7.2-9.2-12.6-12.1c-5.4-2.9-11.8-4.4-19.2-4.4
		h-16.7V382h16.7c5.6,0,10.6-0.8,15-2.4c4.4-1.6,8.2-4,11.4-7c3.2-3.1,5.6-6.7,7.3-11C274.8,357.2,275.7,352.5,275.7,347.3z"/>
</g>
<g class="st0">
	<path class="st1" d="M325.6,415.7l35.5-115.9c2.6-8.4,7.1-14.7,13.5-18.8c6.4-4.1,13.1-6.1,20.2-6.1c7.2,0,14,2,20.3,6.1
		c6.3,4.1,10.8,10.3,13.4,18.8L464,415.7h-38.6l-28.8-104.9c-0.4-1.4-1-2-1.6-2c-0.7,0-1.2,0.7-1.6,2l-29.2,104.9H325.6z
		 M436.2,392.4h-78.9v-33.7h78.9V392.4z"/>
</g>
<g class="st0">
	<path class="st1" d="M541.7,418.7c-10.3,0-19.9-1.8-28.8-5.4c-8.8-3.6-16.6-8.6-23.2-15.1c-6.6-6.5-11.7-14.1-15.3-22.8
		c-3.6-8.8-5.4-18.3-5.4-28.5s1.8-19.7,5.4-28.5c3.6-8.8,8.7-16.4,15.3-22.8c6.6-6.5,14.3-11.5,23.2-15.1c8.8-3.6,18.4-5.4,28.8-5.4
		c10.5,0,20.1,1.8,28.9,5.4c8.8,3.6,16.5,8.6,23.1,15.1c6.6,6.5,11.7,14.1,15.3,22.8c3.6,8.8,5.4,18.3,5.4,28.5s-1.8,19.7-5.4,28.5
		c-3.6,8.8-8.7,16.4-15.3,22.8c-6.6,6.5-14.3,11.5-23.1,15.1C561.8,416.9,552.2,418.7,541.7,418.7z M541.7,383
		c4.8,0,9.2-0.9,13.4-2.8c4.1-1.8,7.8-4.4,10.8-7.7c3.1-3.3,5.4-7.1,7.1-11.5c1.7-4.4,2.5-9.1,2.5-14.2c0-5.2-0.9-9.9-2.5-14.3
		c-1.7-4.4-4.1-8.2-7.1-11.4c-3.1-3.3-6.7-5.8-10.8-7.6c-4.1-1.8-8.6-2.8-13.4-2.8c-4.8,0-9.2,0.9-13.4,2.8
		c-4.2,1.8-7.8,4.4-10.8,7.6c-3.1,3.3-5.4,7.1-7.1,11.4c-1.7,4.4-2.5,9.1-2.5,14.3c0,5,0.8,9.8,2.5,14.2c1.7,4.4,4.1,8.3,7.1,11.5
		c3.1,3.3,6.7,5.8,10.8,7.7C532.5,382.1,536.9,383,541.7,383z"/>
</g>
</svg>
